name C:\Users\Graham\Documents\MATLAB\MOtoNMS_v2_2\MyData\ElaboratedData\S1\17-05-18\dynamicElaborations\rightStSt\\ET2\ET2.mot
datacolumns 19
datarows 10
range 1.685 1.7
endheader

time	    ground_force1_vx	    ground_force1_vy	    ground_force1_vz	    ground_force1_px	    ground_force1_py	    ground_force1_pz	    ground_force2_vx	    ground_force2_vy	    ground_force2_vz	    ground_force2_px	    ground_force2_py	    ground_force2_pz	    ground_torque1_x	    ground_torque1_y	    ground_torque1_z	    ground_torque2_x	    ground_torque2_y	    ground_torque2_z	
1.685	        101.56951644	        786.26201913	        -46.49340090	         -0.00649925	          0.00000000	          0.09639469	          5.09237212	         90.64998093	        -11.62529710	          0.34393082	         -0.00000000	         -0.06143645	         -0.00000000	         -2.64692591	          0.00000000	          0.00000000	          1.71104349	         -0.00000000	
1.68667	        102.32331248	        783.81345300	        -46.17540813	         -0.00749963	          0.00000000	          0.09627600	          4.99102569	         98.43995739	        -12.54036854	          0.34754650	         -0.00000000	         -0.06127938	         -0.00000000	         -2.64154044	          0.00000000	          0.00000000	          1.75256474	         -0.00000000	
1.68833	        103.08334118	        781.25793343	        -45.83666611	         -0.00846760	          0.00000000	          0.09615072	          4.78522801	        106.14470563	        -13.40636695	          0.35102857	         -0.00000000	         -0.06113610	         -0.00000000	         -2.63721781	          0.00000000	          0.00000000	          1.77997287	         -0.00000000	
1.69	        103.84931222	        778.59031867	        -45.47667724	         -0.00940189	          0.00000000	          0.09601870	          4.47674730	        113.78695930	        -14.22019620	          0.35438978	         -0.00000000	         -0.06100679	         -0.00000000	         -2.63400432	          0.00000000	          0.00000000	          1.79518081	         -0.00000000	
1.69167	        104.62084730	        775.80528293	        -45.09495038	         -0.01030147	          0.00000000	          0.09587982	          4.06857211	        121.39923372	        -14.98021783	          0.35764012	         -0.00000000	         -0.06089167	         -0.00000000	         -2.63191282	          0.00000000	          0.00000000	          1.80028246	         -0.00000000	
1.69333	        105.39747270	        772.89733845	        -44.69100566	         -0.01116557	          0.00000000	          0.09573400	          3.56435571	        129.01925684	        -15.68574754	          0.36078731	         -0.00000000	         -0.06079102	         -0.00000000	         -2.63092126	          0.00000000	          0.00000000	          1.79740285	         -0.00000000	
1.695	        106.17861141	        769.86085842	        -44.26437960	         -0.01199367	          0.00000000	          0.09558118	          2.96793078	        136.68577922	        -16.33657546	          0.36383723	         -0.00000000	         -0.06070510	         -0.00000000	         -2.63097205	          0.00000000	          0.00000000	          1.78857569	         -0.00000000	
1.69667	        106.96357455	        766.69010086	        -43.81463052	         -0.01278553	          0.00000000	          0.09542133	          2.28292110	        144.43503090	        -16.93254646	          0.36679417	         -0.00000000	         -0.06063420	         -0.00000000	         -2.63197200	          0.00000000	          0.00000000	          1.77565239	         -0.00000000	
1.69833	        107.75155235	        763.37923340	        -43.34134394	         -0.01354118	          0.00000000	          0.09525447	          1.51246360	        152.29798984	        -17.47322535	          0.36966116	         -0.00000000	         -0.06057861	         -0.00000000	         -2.63379320	          0.00000000	          0.00000000	          1.76024338	         -0.00000000	
1.7	        108.54160452	        759.92235873	        -42.84413827	         -0.01426095	          0.00000000	          0.09508062	          0.65904251	        160.29853012	        -17.95766000	          0.37244010	         -0.00000000	         -0.06053859	         -0.00000000	         -2.63627450	          0.00000000	          0.00000000	          1.74368941	         -0.00000000	
